sim_grf.mot
version=1
nRows=49
nColumns=19
inDegrees=no
endheader
time	ground_force_vx	ground_force_vy	ground_force_vz	ground_force_px	ground_force_py	ground_force_pz	1_ground_force_vx	1_ground_force_vy	1_ground_force_vz	1_ground_force_px	1_ground_force_py	1_ground_force_pz	ground_torque_x	ground_torque_y	ground_torque_z	1_ground_torque_x	1_ground_torque_y	1_ground_torque_z
7.500000	135.465000	352.349000	-0.000000	6.887080	-0.000000	0.126500	-91.266000	309.732000	-0.000000	7.358150	-0.000000	-0.070255	0.000000	0.000000	0.000000	0.000000	0.000000	0.000000
7.510000	122.515000	295.446000	-0.000000	6.888490	-0.000000	0.126500	-99.919600	421.813000	-0.000000	7.366940	-0.000000	-0.071053	0.000000	0.000000	0.000000	0.000000	0.000000	0.000000
7.520000	104.370000	236.977000	-0.000000	6.890060	-0.000000	0.126500	-93.165100	540.091000	-0.000000	7.367980	-0.000000	-0.071123	0.000000	0.000000	0.000000	0.000000	0.000000	0.000000
7.530000	82.069900	177.682000	-0.000000	6.891820	-0.000000	0.126500	-90.533500	626.669000	-0.000000	7.369100	-0.000000	-0.071222	0.000000	0.000000	0.000000	0.000000	0.000000	0.000000
7.540000	59.214900	121.872000	-0.000000	6.893800	-0.000000	0.126500	-92.610600	670.711000	-0.000000	7.370960	-0.000000	-0.071400	0.000000	0.000000	0.000000	0.000000	0.000000	0.000000
7.550000	43.655600	79.088000	-0.000000	6.896140	-0.000000	0.126500	-96.187300	686.419000	-0.000000	7.372790	-0.000000	-0.071574	0.000000	0.000000	0.000000	0.000000	0.000000	0.000000
7.560000	21.161600	41.760100	-0.000000	6.898340	-0.000000	0.126500	-98.946100	694.251000	-0.000000	7.374520	-0.000000	-0.071734	0.000000	0.000000	0.000000	0.000000	0.000000	0.000000
7.570000	5.160570	14.414100	-0.000000	6.900830	-0.000000	0.126500	-98.845000	706.032000	-0.000000	7.376150	-0.000000	-0.071877	0.000000	0.000000	0.000000	0.000000	0.000000	0.000000
7.580000	-0.000000	-0.000000	-0.000000	0.000000	0.000000	0.000000	-95.678000	723.380000	-0.000000	7.377280	-0.000000	-0.071968	0.000000	0.000000	0.000000	0.000000	0.000000	0.000000
7.590000	-0.000000	-0.000000	-0.000000	0.000000	0.000000	0.000000	-90.425300	743.907000	-0.000000	7.378070	-0.000000	-0.072025	0.000000	0.000000	0.000000	0.000000	0.000000	0.000000
7.600000	-0.000000	-0.000000	-0.000000	0.000000	0.000000	0.000000	-83.585800	763.546000	-0.000000	7.378770	-0.000000	-0.072074	0.000000	0.000000	0.000000	0.000000	0.000000	0.000000
7.610000	-0.000000	-0.000000	-0.000000	0.000000	0.000000	0.000000	-74.760400	777.303000	-0.000000	7.379490	-0.000000	-0.072124	0.000000	0.000000	0.000000	0.000000	0.000000	0.000000
7.620000	-0.000000	-0.000000	-0.000000	0.000000	0.000000	0.000000	-66.739400	783.401000	-0.000000	7.380210	-0.000000	-0.072177	0.000000	0.000000	0.000000	0.000000	0.000000	0.000000
7.630000	-0.000000	-0.000000	-0.000000	0.000000	0.000000	0.000000	-58.490200	784.301000	-0.000000	7.381040	-0.000000	-0.072241	0.000000	0.000000	0.000000	0.000000	0.000000	0.000000
7.640000	-0.000000	-0.000000	-0.000000	0.000000	0.000000	0.000000	-51.215500	781.364000	-0.000000	7.382010	-0.000000	-0.072319	0.000000	0.000000	0.000000	0.000000	0.000000	0.000000
7.650000	-0.000000	-0.000000	-0.000000	0.000000	0.000000	0.000000	-44.882900	774.912000	-0.000000	7.383130	-0.000000	-0.072412	0.000000	0.000000	0.000000	0.000000	0.000000	0.000000
7.660000	-0.000000	-0.000000	-0.000000	0.000000	0.000000	0.000000	-39.323400	766.117000	-0.000000	7.384430	-0.000000	-0.072524	0.000000	0.000000	0.000000	0.000000	0.000000	0.000000
7.670000	-0.000000	-0.000000	-0.000000	0.000000	0.000000	0.000000	-34.054500	755.325000	-0.000000	7.385930	-0.000000	-0.072655	0.000000	0.000000	0.000000	0.000000	0.000000	0.000000
7.680000	-0.000000	-0.000000	-0.000000	0.000000	0.000000	0.000000	-29.609700	742.825000	-0.000000	7.387620	-0.000000	-0.072805	0.000000	0.000000	0.000000	0.000000	0.000000	0.000000
7.690000	-0.000000	-0.000000	-0.000000	0.000000	0.000000	0.000000	-25.301000	728.562000	-0.000000	7.389560	-0.000000	-0.072978	0.000000	0.000000	0.000000	0.000000	0.000000	0.000000
7.700000	-0.000000	-0.000000	-0.000000	0.000000	0.000000	0.000000	-22.053700	712.715000	-0.000000	7.391680	-0.000000	-0.073169	0.000000	0.000000	0.000000	0.000000	0.000000	0.000000
7.710000	-0.000000	-0.000000	-0.000000	0.000000	0.000000	0.000000	-18.981600	698.209000	-0.000000	7.393940	-0.000000	-0.073374	0.000000	0.000000	0.000000	0.000000	0.000000	0.000000
7.720000	-0.000000	-0.000000	-0.000000	0.000000	0.000000	0.000000	-16.842000	682.526000	-0.000000	7.396460	-0.000000	-0.073605	0.000000	0.000000	0.000000	0.000000	0.000000	0.000000
7.730000	-0.000000	-0.000000	-0.000000	0.000000	0.000000	0.000000	-15.473300	667.260000	-0.000000	7.399170	-0.000000	-0.073853	0.000000	0.000000	0.000000	0.000000	0.000000	0.000000
7.740000	-0.000000	-0.000000	-0.000000	0.000000	0.000000	0.000000	-14.640200	652.616000	-0.000000	7.402090	-0.000000	-0.074122	0.000000	0.000000	0.000000	0.000000	0.000000	0.000000
7.750000	-0.000000	-0.000000	-0.000000	0.000000	0.000000	0.000000	-13.867400	638.970000	-0.000000	7.405220	-0.000000	-0.074412	0.000000	0.000000	0.000000	0.000000	0.000000	0.000000
7.760000	-0.000000	-0.000000	-0.000000	0.000000	0.000000	0.000000	-14.395500	626.549000	-0.000000	7.408520	-0.000000	-0.074719	0.000000	0.000000	0.000000	0.000000	0.000000	0.000000
7.770000	-0.000000	-0.000000	-0.000000	0.000000	0.000000	0.000000	-13.846900	615.510000	-0.000000	7.412030	-0.000000	-0.075044	0.000000	0.000000	0.000000	0.000000	0.000000	0.000000
7.780000	-0.000000	-0.000000	-0.000000	0.000000	0.000000	0.000000	-14.265600	605.600000	-0.000000	7.415660	-0.000000	-0.075382	0.000000	0.000000	0.000000	0.000000	0.000000	0.000000
7.790000	-0.000000	-0.000000	-0.000000	0.000000	0.000000	0.000000	-14.579100	595.968000	-0.000000	7.419510	-0.000000	-0.075740	0.000000	0.000000	0.000000	0.000000	0.000000	0.000000
7.800000	-0.000000	-0.000000	-0.000000	0.000000	0.000000	0.000000	-11.990800	585.136000	-0.000000	7.423550	-0.000000	-0.076113	0.000000	0.000000	0.000000	0.000000	0.000000	0.000000
7.810000	-0.000000	-0.000000	-0.000000	0.000000	0.000000	0.000000	-11.216700	574.687000	-0.000000	7.428000	-0.000000	-0.076528	0.000000	0.000000	0.000000	0.000000	0.000000	0.000000
7.820000	-0.000000	-0.000000	-0.000000	0.000000	0.000000	0.000000	-12.070700	565.974000	-0.000000	7.432670	-0.000000	-0.076965	0.000000	0.000000	0.000000	0.000000	0.000000	0.000000
7.830000	-0.000000	-0.000000	-0.000000	0.000000	0.000000	0.000000	54.869500	540.382000	-0.000000	7.434680	-0.000000	-0.077073	0.000000	0.000000	0.000000	0.000000	0.000000	0.000000
7.840000	-0.000000	-0.000000	-0.000000	0.000000	0.000000	0.000000	17.629300	553.036000	-0.000000	7.442790	-0.000000	-0.077891	0.000000	0.000000	0.000000	0.000000	0.000000	0.000000
7.850000	-0.000000	-0.000000	-0.000000	0.000000	0.000000	0.000000	4.276590	563.132000	-0.000000	7.447650	-0.000000	-0.078361	0.000000	0.000000	0.000000	0.000000	0.000000	0.000000
7.860000	-0.000000	-0.000000	-0.000000	0.000000	0.000000	0.000000	2.046880	575.681000	-0.000000	7.451160	-0.000000	-0.078689	0.000000	0.000000	0.000000	0.000000	0.000000	0.000000
7.870000	-0.000000	-0.000000	-0.000000	0.000000	0.000000	0.000000	4.272720	591.054000	-0.000000	7.453850	-0.000000	-0.078936	0.000000	0.000000	0.000000	0.000000	0.000000	0.000000
7.880000	-0.000000	-0.000000	-0.000000	0.000000	0.000000	0.000000	8.288140	609.282000	-0.000000	7.455980	-0.000000	-0.079130	0.000000	0.000000	0.000000	0.000000	0.000000	0.000000
7.890000	-0.000000	-0.000000	-0.000000	0.000000	0.000000	0.000000	13.083000	630.137000	-0.000000	7.457880	-0.000000	-0.079301	0.000000	0.000000	0.000000	0.000000	0.000000	0.000000
7.900000	-0.000000	-0.000000	-0.000000	0.000000	0.000000	0.000000	16.715300	652.863000	-0.000000	7.459770	-0.000000	-0.079475	0.000000	0.000000	0.000000	0.000000	0.000000	0.000000
7.910000	-0.000000	-0.000000	-0.000000	0.000000	0.000000	0.000000	20.159600	675.795000	-0.000000	7.461780	-0.000000	-0.079660	0.000000	0.000000	0.000000	0.000000	0.000000	0.000000
7.920000	-0.000000	-0.000000	-0.000000	0.000000	0.000000	0.000000	23.815200	697.387000	-0.000000	7.464090	-0.000000	-0.079874	0.000000	0.000000	0.000000	0.000000	0.000000	0.000000
7.930000	-0.000000	-0.000000	-0.000000	0.000000	0.000000	0.000000	27.452500	715.869000	-0.000000	7.466870	-0.000000	-0.080133	0.000000	0.000000	0.000000	0.000000	0.000000	0.000000
7.940000	-0.000000	-0.000000	-0.000000	0.000000	0.000000	0.000000	25.721000	745.941000	-0.000000	7.468360	-0.000000	-0.080274	0.000000	0.000000	0.000000	0.000000	0.000000	0.000000
7.950000	-0.000000	-0.000000	-0.000000	0.000000	0.000000	0.000000	25.243400	769.246000	-0.000000	7.470590	-0.000000	-0.080484	0.000000	0.000000	0.000000	0.000000	0.000000	0.000000
7.960000	-0.000000	-0.000000	-0.000000	0.000000	0.000000	0.000000	33.581700	775.008000	-0.000000	7.473890	-0.000000	-0.080786	0.000000	0.000000	0.000000	0.000000	0.000000	0.000000
7.970000	-0.000000	-0.000000	-0.000000	0.000000	0.000000	0.000000	40.604700	769.131000	-0.000000	7.478630	-0.000000	-0.081227	0.000000	0.000000	0.000000	0.000000	0.000000	0.000000
7.980000	-0.000000	-0.000000	-0.000000	0.000000	0.000000	0.000000	46.754400	754.658000	-0.000000	7.484790	-0.000000	-0.081800	0.000000	0.000000	0.000000	0.000000	0.000000	0.000000
